<?xml version="1.0" encoding="UTF-8" standalone="no"?><svg xmlns="http://www.w3.org/2000/svg" version="1.1" viewBox="30 0 914 192"><g id="tulip" transform="matrix(0.65,0,0,0.65,10.683,20.341)"><rect width="5" height="5" x="60" y="25" fill="#ffca28" rx="2.5" ry="2.5" /><rect width="10" height="5" x="115" y="25" fill="#ef6c00" rx="2.5" ry="2.5" /><rect width="5" height="5" x="175" y="25" fill="#ffca28" rx="2.5" ry="2.5" /><rect width="17" height="5" x="60" y="35" fill="#ffca28" rx="2.5" ry="2.5" /><rect width="30" height="5" x="105" y="35" fill="#ef6c00" rx="2.5" ry="2.5" /><rect width="17" height="5" x="163" y="35" fill="#ffca28" rx="2.5" ry="2.5" /><rect width="30" height="5" x="60" y="45" fill="#ffca28" rx="2.5" ry="2.5" /><rect width="40" height="5" x="100" y="45" fill="#ef6c00" rx="2.5" ry="2.5" /><rect width="30" height="5" x="150" y="45" fill="#ffca28" rx="2.5" ry="2.5" /><rect width="35" height="5" x="60" y="55" fill="#ffca28" rx="2.5" ry="2.5" /><rect width="30" height="5" x="105" y="55" fill="#ef6c00" rx="2.5" ry="2.5" /><rect width="35" height="5" x="145" y="55" fill="#ffca28" rx="2.5" ry="2.5" /><rect width="40" height="5" x="60" y="65" fill="#ffca28" rx="2.5" ry="2.5" /><rect width="20" height="5" x="110" y="65" fill="#ef6c00" rx="2.5" ry="2.5" /><rect width="40" height="5" x="140" y="65" fill="#ffca28" rx="2.5" ry="2.5" /><rect width="40" height="5" x="60" y="75" fill="#ffca28" rx="2.5" ry="2.5" /><rect width="20" height="5" x="110" y="75" fill="#ef6c00" rx="2.5" ry="2.5" /><rect width="40" height="5" x="140" y="75" fill="#ffca28" rx="2.5" ry="2.5" /><rect width="40" height="5" x="60" y="85" fill="#ffca28" rx="2.5" ry="2.5" /><rect width="20" height="5" x="110" y="85" fill="#ef6c00" rx="2.5" ry="2.5" /><rect width="40" height="5" x="140" y="85" fill="#ffca28" rx="2.5" ry="2.5" /><rect width="35" height="5" x="65" y="95" fill="#ffca28" rx="2.5" ry="2.5" /><rect width="10" height="5" x="115" y="95" fill="#ef6c00" rx="2.5" ry="2.5" /><rect width="35" height="5" x="140" y="95" fill="#ffca28" rx="2.5" ry="2.5" /><rect width="40" height="5" x="70" y="105" fill="#ffca28" rx="2.5" ry="2.5" /><rect width="40" height="5" x="130" y="105" fill="#ffca28" rx="2.5" ry="2.5" /><rect width="90" height="5" x="75" y="115" fill="#ffca28" rx="2.5" ry="2.5" /><rect width="5" height="5" x="30" y="125" fill="#00c853" rx="2.5" ry="2.5" /><rect width="70" height="5" x="85" y="125" fill="#ffca28" rx="2.5" ry="2.5" /><rect width="5" height="5" x="205" y="125" fill="#00c853" rx="2.5" ry="2.5" /><rect width="25" height="5" x="30" y="135" fill="#00c853" rx="2.5" ry="2.5" /><rect width="50" height="5" x="95" y="135" fill="#ffca28" rx="2.5" ry="2.5" /><rect width="25" height="5" x="185" y="135" fill="#00c853" rx="2.5" ry="2.5" /><rect width="30" height="5" x="35" y="145" fill="#00c853" rx="2.5" ry="2.5" /><rect width="20" height="5" x="110" y="145" fill="#00c853" rx="2.5" ry="2.5" /><rect width="30" height="5" x="175" y="145" fill="#00c853" rx="2.5" ry="2.5" /><rect width="45" height="5" x="40" y="155" fill="#00c853" rx="2.5" ry="2.5" /><rect width="20" height="5" x="110" y="155" fill="#00c853" rx="2.5" ry="2.5" /><rect width="45" height="5" x="155" y="155" fill="#00c853" rx="2.5" ry="2.5" /><rect width="50" height="5" x="45" y="165" fill="#00c853" rx="2.5" ry="2.5" /><rect width="20" height="5" x="110" y="165" fill="#00c853" rx="2.5" ry="2.5" /><rect width="50" height="5" x="145" y="165" fill="#00c853" rx="2.5" ry="2.5" /><rect width="50" height="5" x="55" y="175" fill="#00c853" rx="2.5" ry="2.5" /><rect width="20" height="5" x="110" y="175" fill="#00c853" rx="2.5" ry="2.5" /><rect width="50" height="5" x="135" y="175" fill="#00c853" rx="2.5" ry="2.5" /><rect width="120" height="5" x="60" y="185" fill="#00c853" rx="2.5" ry="2.5" /><rect width="100" height="5" x="70" y="195" fill="#00c853" rx="2.5" ry="2.5" /><rect width="70" height="5" x="85" y="205" fill="#00c853" rx="2.5" ry="2.5" /></g><g id="waterfall" fill-opacity="0.5" transform="matrix(0.65,0,0,0.65,10.683,20.341)"><rect width="180" height="5" x="30" y="15" fill="#888888" rx="2.5" ry="2.5"/><rect width="25" height="5" x="30" y="25" fill="#888888" rx="2.5" ry="2.5"/><rect width="40" height="5" x="70" y="25" fill="#888888" rx="2.5" ry="2.5"/><rect width="40" height="5" x="130" y="25" fill="#888888" rx="2.5" ry="2.5"/><rect width="25" height="5" x="185" y="25" fill="#888888" rx="2.5" ry="2.5"/><rect width="25" height="5" x="30" y="35" fill="#888888" rx="2.5" ry="2.5"/><rect width="13" height="5" x="84.5" y="35" fill="#888888" rx="2.5" ry="2.5"/><rect width="13" height="5" x="142.5" y="35" fill="#888888" rx="2.5" ry="2.5"/><rect width="25" height="5" x="185" y="35" fill="#888888" rx="2.5" ry="2.5"/><rect width="25" height="5" x="30" y="45" fill="#888888" rx="2.5" ry="2.5"/><rect width="25" height="5" x="185" y="45" fill="#888888" rx="2.5" ry="2.5"/><rect width="25" height="5" x="30" y="55" fill="#888888" rx="2.5" ry="2.5"/><rect width="25" height="5" x="185" y="55" fill="#888888" rx="2.5" ry="2.5"/><rect width="25" height="5" x="30" y="65" fill="#888888" rx="2.5" ry="2.5"/><rect width="25" height="5" x="185" y="65" fill="#888888" rx="2.5" ry="2.5"/><rect width="25" height="5" x="30" y="75" fill="#888888" rx="2.5" ry="2.5"/><rect width="25" height="5" x="185" y="75" fill="#888888" rx="2.5" ry="2.5"/><rect width="25" height="5" x="30" y="85" fill="#888888" rx="2.5" ry="2.5"/><rect width="25" height="5" x="185" y="85" fill="#888888" rx="2.5" ry="2.5"/><rect width="30" height="5" x="30" y="95" fill="#888888" rx="2.5" ry="2.5"/><rect width="30" height="5" x="180" y="95" fill="#888888" rx="2.5" ry="2.5"/><rect width="35" height="5" x="30" y="105" fill="#888888" rx="2.5" ry="2.5"/><rect width="35" height="5" x="175" y="105" fill="#888888" rx="2.5" ry="2.5"/><rect width="40" height="5" x="30" y="115" fill="#888888" rx="2.5" ry="2.5"/><rect width="40" height="5" x="170" y="115" fill="#888888" rx="2.5" ry="2.5"/><rect width="40" height="5" x="40" y="125" fill="#888888" rx="2.5" ry="2.5"/><rect width="40" height="5" x="160" y="125" fill="#888888" rx="2.5" ry="2.5"/><rect width="30" height="5" x="60" y="135" fill="#888888" rx="2.5" ry="2.5"/><rect width="30" height="5" x="150" y="135" fill="#888888" rx="2.5" ry="2.5"/><rect width="35" height="5" x="70" y="145" fill="#888888" rx="2.5" ry="2.5"/><rect width="35" height="5" x="135" y="145" fill="#888888" rx="2.5" ry="2.5"/><rect width="5" height="5" x="30" y="155" fill="#888888" rx="2.5" ry="2.5"/><rect width="15" height="5" x="90" y="155" fill="#888888" rx="2.5" ry="2.5"/><rect width="15" height="5" x="135" y="155" fill="#888888" rx="2.5" ry="2.5"/><rect width="5" height="5" x="205" y="155" fill="#888888" rx="2.5" ry="2.5"/><rect width="10" height="5" x="30" y="165" fill="#888888" rx="2.5" ry="2.5"/><rect width="5" height="5" x="100" y="165" fill="#888888" rx="2.5" ry="2.5"/><rect width="5" height="5" x="135" y="165" fill="#888888" rx="2.5" ry="2.5"/><rect width="10" height="5" x="200" y="165" fill="#888888" rx="2.5" ry="2.5"/><rect width="20" height="5" x="30" y="175" fill="#888888" rx="2.5" ry="2.5"/><rect width="20" height="5" x="190" y="175" fill="#888888" rx="2.5" ry="2.5"/><rect width="25" height="5" x="30" y="185" fill="#888888" rx="2.5" ry="2.5"/><rect width="25" height="5" x="185" y="185" fill="#888888" rx="2.5" ry="2.5"/><rect width="35" height="5" x="30" y="195" fill="#888888" rx="2.5" ry="2.5"/><rect width="35" height="5" x="175" y="195" fill="#888888" rx="2.5" ry="2.5"/><rect width="50" height="5" x="30" y="205" fill="#888888" rx="2.5" ry="2.5"/><rect width="50" height="5" x="160" y="205" fill="#888888" rx="2.5" ry="2.5"/><rect width="180" height="5" x="30" y="215" fill="#888888" rx="2.5" ry="2.5"/></g><path id="banner-text" d="m 224.96,30 c -3.04,0 -5.68,0.96 -7.76,2.96 -2.08,1.92 -3.12,4.32 -3.12,7.2 0,2.88 1.04,5.36 3.12,7.36 2.08,1.84 4.72,2.8 7.76,2.8 3.2,0 5.76,-0.96 7.76,-2.96 2.08,-2.08 3.12,-4.64 3.12,-7.6 0,-2.8 -1.04,-5.12 -3.12,-6.88 C 230.64,30.96 228.08,30 224.96,30 Z m 569.12,0 c -3.04,0 -5.68,0.96 -7.76,2.96 -2.08,1.92 -3.12,4.32 -3.12,7.2 0,2.88 1.04,5.36 3.12,7.36 2.08,1.84 4.72,2.8 7.76,2.8 3.2,0 5.76,-0.96 7.76,-2.96 2.08,-2.08 3.12,-4.64 3.12,-7.6 0,-2.8 -1.04,-5.12 -3.12,-6.88 C 799.76,30.96 797.2,30 794.08,30 Z m 58.88,3.12 c -8.24,0 -14.56,2.24 -19.12,6.8 -4.48,4.4 -6.8,10.56 -6.8,18.32 v 4.56 h -11.92 v 13.6 h 11.92 v 58.32 H 844 V 76.4 h 19.44 V 62.8 h -20 v -4.32 c 0,-7.76 3.6,-11.68 10.72,-11.68 3.36,0 6.48,1.04 9.36,3.04 l 4.8,-12.8 c -3.76,-2.64 -8.8,-3.92 -15.36,-3.92 z M 377.84,34.08 V 134.72 H 394 v -9.36 c 2.8,3.44 6.24,6 10.32,7.76 4.16,1.68 8.72,2.56 13.68,2.56 7.04,0 13.36,-1.52 18.88,-4.64 5.6,-3.04 10,-7.36 13.12,-12.96 3.2,-5.76 4.8,-12.24 4.8,-19.6 0,-7.28 -1.6,-13.76 -4.8,-19.36 -3.12,-5.6 -7.52,-9.92 -13.12,-13.04 -5.52,-3.04 -11.84,-4.64 -18.88,-4.64 -4.72,0 -9.04,0.88 -12.96,2.48 -3.92,1.6 -7.28,4 -10.24,7.2 V 34.08 Z M 730.32,46.32 V 62.8 H 718.4 v 13.6 h 11.92 v 34.88 c 0,7.92 2.16,14 6.56,18.16 4.32,4.16 10.48,6.24 18.4,6.24 3.2,0 6.16,-0.4 8.96,-1.2 2.88,-0.88 5.36,-2.08 7.36,-3.68 l -4.8,-12.08 c -2.48,2 -5.68,2.96 -9.44,2.96 -3.28,0 -5.76,-0.88 -7.52,-2.64 -1.68,-1.92 -2.56,-4.64 -2.56,-8.16 V 76.4 h 19.44 V 62.8 H 747.28 V 46.32 Z m -448.8,15.12 c -9.76,0 -17.52,2.08 -23.28,6.24 -5.76,4.08 -8.56,9.6 -8.56,16.48 0,5.2 1.36,9.36 4.08,12.32 2.8,2.88 6,4.96 9.76,6.08 3.76,1.2 8.64,2.24 14.64,3.12 5.68,0.96 9.84,1.84 12.32,2.88 2.64,0.96 3.92,2.72 3.92,5.28 0,5.36 -5.04,8 -15.2,8 -4.4,0 -8.88,-0.64 -13.52,-1.92 -4.56,-1.36 -8.4,-3.12 -11.68,-5.28 l -6.48,12.88 c 3.28,2.4 7.76,4.32 13.44,5.84 5.6,1.52 11.28,2.32 17.2,2.32 10.08,0 18.08,-2 24,-6.08 5.84,-4.08 8.8,-9.52 8.8,-16.32 0,-5.12 -1.36,-9.12 -4.08,-11.92 -2.56,-2.8 -5.76,-4.8 -9.44,-6 -3.76,-1.12 -8.48,-2.16 -14.24,-3.12 -5.84,-0.96 -10.08,-2 -12.88,-3.12 -2.72,-1.12 -4.08,-3.12 -4.08,-5.84 0,-2.4 1.28,-4.32 3.76,-5.76 2.64,-1.6 6.4,-2.32 11.44,-2.32 7.68,0 14.56,1.76 20.72,5.44 l 6.48,-12.96 c -3.12,-1.84 -7.2,-3.36 -12.16,-4.48 -4.96,-1.12 -9.92,-1.76 -14.96,-1.76 z m 220.88,0 c -7.12,0 -13.6,1.6 -19.28,4.8 -5.68,3.12 -10.16,7.6 -13.44,13.28 -3.12,5.6 -4.72,11.92 -4.72,18.96 0,7.2 1.6,13.6 4.88,19.28 3.36,5.6 8.08,10 14.08,13.2 6.08,3.12 13.12,4.72 21.04,4.72 6.24,0 11.84,-0.96 16.88,-2.96 4.96,-2 9.04,-4.96 12.32,-8.88 l -9.12,-10.4 c -5.12,5.28 -11.68,7.84 -19.68,7.84 -6.24,0 -11.44,-1.52 -15.68,-4.56 -4.16,-3.2 -6.8,-7.44 -7.76,-12.8 h 56.88 c 0.16,-2.16 0.24,-3.84 0.24,-4.96 0,-7.44 -1.6,-14 -4.72,-19.6 -3.12,-5.68 -7.44,-10.08 -13.04,-13.12 -5.52,-3.2 -11.84,-4.8 -18.88,-4.8 z m 78.56,0 c -6,0 -11.6,0.8 -16.96,2.32 -5.36,1.52 -9.92,3.76 -13.68,6.64 l 6.64,12.4 c 2.72,-2.32 6,-4.08 9.92,-5.28 3.92,-1.28 8,-1.92 12.08,-1.92 5.92,0 10.4,1.36 13.36,4.08 3.12,2.72 4.64,6.56 4.64,11.6 v 1.12 h -18.72 c -10.4,0 -18.08,2 -22.96,6 -4.8,3.84 -7.12,9.04 -7.12,15.6 0,4.16 1.04,7.92 3.2,11.2 2.24,3.28 5.44,5.84 9.52,7.76 4.08,1.84 8.8,2.72 14.24,2.72 5.44,0 10,-0.8 13.84,-2.48 3.92,-1.68 6.88,-4.16 8.96,-7.28 v 8.8 h 16 V 92.24 c 0,-10.32 -2.88,-18 -8.56,-23.04 -5.6,-5.12 -13.76,-7.76 -24.4,-7.76 z m -364.4,0.88 v 74.16 c 0,3.84 -0.88,6.64 -2.56,8.56 -1.68,2 -4.08,2.96 -7.2,2.96 -4.08,0 -7.36,-0.96 -9.92,-2.8 L 192,157.76 c 3.68,2.88 9.12,4.24 16.32,4.24 7.92,0 14.08,-2.32 18.56,-6.96 4.4,-4.56 6.64,-10.88 6.64,-18.96 V 62.32 Z m 418.56,0 v 41.36 c 0,10.56 2.72,18.56 8.24,24 5.6,5.36 13.28,8 22.96,8 4.64,0 9.04,-0.88 13.12,-2.56 4.08,-1.84 7.44,-4.4 10.16,-7.6 v 9.2 h 16.16 V 62.32 H 688.8 v 36.64 c 0,7.04 -1.76,12.48 -5.44,16.24 -3.52,3.68 -8.32,5.6 -14.32,5.6 -5.44,0 -9.68,-1.6 -12.64,-4.8 -2.88,-3.28 -4.32,-8.16 -4.32,-14.64 V 62.32 Z m 150.4,0 v 72.4 h 16.96 v -72.4 z m 78.8,0 31.68,72.72 -1.28,2.8 c -1.6,3.6 -3.44,6.24 -5.36,7.76 -1.92,1.52 -4.4,2.32 -7.36,2.32 -2.24,0 -4.56,-0.48 -6.8,-1.36 -2.16,-0.96 -4.08,-2.16 -5.68,-3.68 l -6.8,12.48 c 2.24,2.08 5.2,3.68 8.72,4.88 3.52,1.2 7.12,1.76 10.72,1.76 6.4,0 11.84,-1.6 16.4,-4.88 4.48,-3.2 8.32,-8.72 11.52,-16.56 L 944,62.32 H 927.68 L 904.8,115.84 882,62.32 Z M 502.4,75.04 c 5.52,0 10.16,1.6 13.84,4.88 3.68,3.28 5.92,7.52 6.64,12.72 h -41.12 c 0.8,-5.28 3.12,-9.52 6.8,-12.72 3.84,-3.28 8.4,-4.88 13.84,-4.88 z m -86.24,0.8 c 6.24,0 11.28,2.08 15.28,6.24 4.08,4.16 6.16,9.68 6.16,16.4 0,6.8 -2.08,12.32 -6.16,16.48 -4,4.16 -9.04,6.24 -15.28,6.24 -4.08,0 -7.76,-0.96 -11.04,-2.72 -3.28,-1.92 -5.84,-4.56 -7.68,-8 -1.92,-3.44 -2.88,-7.44 -2.88,-12 0,-4.48 0.96,-8.48 2.88,-11.92 1.84,-3.44 4.4,-6.08 7.68,-7.84 3.28,-1.92 6.96,-2.88 11.04,-2.88 z M 322,90 v 14.08 h 37.28 V 90 Z m 257.44,13.68 h 17.52 v 8.4 c -1.36,3.6 -3.68,6.4 -7.04,8.4 -3.28,1.92 -7.04,2.88 -11.28,2.88 -4.32,0 -7.76,-0.96 -10.16,-2.72 -2.48,-1.84 -3.68,-4.24 -3.68,-7.36 0,-6.4 4.88,-9.6 14.64,-9.6 z" fill="#cccccc" />
</svg>
