<svg xmlns="http://www.w3.org/2000/svg" version="1.1" viewBox="30 0 944 192">
   <g id="javascript">
      <rect x="43.256" y="150" width="37.488" height="4" rx="2" fill="#ffca28"></rect>
      <rect x="36.584" y="142" width="52.08" height="4" rx="2" fill="#ffca28"></rect>
      <rect x="30" y="134" width="64" height="4" rx="2" fill="#ffca28"></rect>
      <rect x="35.328" y="126" width="16" height="4" rx="2" fill="#ffca28"></rect>
      <rect x="41.328" y="118" width="4" height="4" rx="2" fill="#ffca28"></rect>
      <rect x="71.328" y="126" width="24" height="4" rx="2" fill="#ffca28"></rect>
      <rect x="73.328" y="118" width="22.8" height="4" rx="2" fill="#ffca28"></rect>
      <rect x="73.328" y="110" width="22.8" height="4" rx="2" fill="#ffca28"></rect>
      <rect x="73.328" y="102" width="22.8" height="4" rx="2" fill="#ffca28"></rect>
      <rect x="73.328" y="94" width="22.8" height="4" rx="2" fill="#ffca28"></rect>
      <rect x="73.328" y="86" width="22.8" height="4" rx="2" fill="#ffca28"></rect>
      <rect x="73.328" y="78" width="22.8" height="4" rx="2" fill="#ffca28"></rect>
      <rect x="73.328" y="70" width="22.8" height="4" rx="2" fill="#ffca28"></rect>
      <rect x="73.328" y="62" width="22.8" height="4" rx="2" fill="#ffca28"></rect>
      <rect x="73.328" y="54" width="22.8" height="4" rx="2" fill="#ffca28"></rect>
      <rect x="73.328" y="46" width="22.8" height="4" rx="2" fill="#ffca28"></rect>
      <rect x="73.328" y="38" width="22.8" height="4" rx="2" fill="#ffca28"></rect>
      <rect x="128.664" y="150" width="40" height="4" rx="2" fill="#ffca28"></rect>
      <rect x="118" y="142" width="60" height="4" rx="2" fill="#ffca28"></rect>
      <rect x="110" y="134" width="74.664" height="4" rx="2" fill="#ffca28"></rect>
      <rect x="112.504" y="126" width="21.336" height="4" rx="2" fill="#ffca28"></rect>
      <rect x="123.84" y="118" width="4" height="4" rx="2" fill="#ffca28"></rect>
      <rect x="161.84" y="126" width="24.664" height="4" rx="2" fill="#ffca28"></rect>
      <rect x="162.504" y="118" width="24.664" height="4" rx="2" fill="#ffca28"></rect>
      <rect x="153.84" y="110" width="32" height="4" rx="2" fill="#ffca28"></rect>
      <rect x="134.504" y="102" width="48" height="4" rx="2" fill="#ffca28"></rect>
      <rect x="122.504" y="94" width="50" height="4" rx="2" fill="#ffca28"></rect>
      <rect x="117.168" y="86" width="44" height="4" rx="2" fill="#ffca28"></rect>
      <rect x="113.84" y="78" width="32" height="4" rx="2" fill="#ffca28"></rect>
      <rect x="113.84" y="70" width="26.664" height="4" rx="2" fill="#ffca28"></rect>
      <rect x="113.84" y="62" width="28" height="4" rx="2" fill="#ffca28"></rect>
      <rect x="160.448" y="70" width="4" height="4" rx="2" fill="#ffca28"></rect>
      <rect x="155.688" y="62" width="18.8" height="4" rx="2" fill="#ffca28"></rect>
      <rect x="117.208" y="54" width="62.664" height="4" rx="2" fill="#ffca28"></rect>
      <rect x="121.88" y="46" width="52" height="4" rx="2" fill="#ffca28"></rect>
      <rect x="132.544" y="38" width="30.664" height="4" rx="2" fill="#ffca28"></rect>
   </g>
   <g id="waterfall">
      <rect x="30" y="158" width="157.16" height="4" rx="2" fill="#888888" fill-opacity="0.48"></rect>
      <rect x="30" y="150" width="10.592" height="4" rx="2" fill="#888888" fill-opacity="0.48"></rect>
      <rect x="30" y="142" width="4" height="4" rx="2" fill="#888888" fill-opacity="0.48"></rect>
      <rect x="30" y="126" width="4" height="4" rx="2" fill="#888888" fill-opacity="0.48"></rect>
      <rect x="30" y="118" width="8.656" height="4" rx="2" fill="#888888" fill-opacity="0.48"></rect>
      <rect x="54" y="126" width="14.616" height="4" rx="2" fill="#888888" fill-opacity="0.48"></rect>
      <rect x="48" y="118" width="22.672" height="4" rx="2" fill="#888888" fill-opacity="0.48"></rect>
      <rect x="30" y="110" width="22.672" height="4" rx="2" fill="#888888" fill-opacity="0.48"></rect>
      <rect x="55.345" y="110" width="15.32" height="4" rx="2" fill="#888888" fill-opacity="0.48"></rect>
      <rect x="30" y="102" width="15.32" height="4" rx="2" fill="#888888" fill-opacity="0.48"></rect>
      <rect x="48" y="102" width="22.672" height="4" rx="2" fill="#888888" fill-opacity="0.48"></rect>
      <rect x="30" y="94" width="22" height="4" rx="2" fill="#888888" fill-opacity="0.48"></rect>
      <rect x="54.672" y="94" width="15.992" height="4" rx="2" fill="#888888" fill-opacity="0.48"></rect>
      <rect x="30" y="86" width="8" height="4" rx="2" fill="#888888" fill-opacity="0.48"></rect>
      <rect x="40.672" y="86" width="24" height="4" rx="2" fill="#888888" fill-opacity="0.48"></rect>
      <rect x="66.664" y="86" width="4" height="4" rx="2" fill="#888888" fill-opacity="0.48"></rect>
      <rect x="30" y="78" width="22.672" height="4" rx="2" fill="#888888" fill-opacity="0.48"></rect>
      <rect x="55.345" y="78" width="15.32" height="4" rx="2" fill="#888888" fill-opacity="0.48"></rect>
      <rect x="30" y="70" width="11.992" height="4" rx="2" fill="#888888" fill-opacity="0.48"></rect>
      <rect x="44.664" y="70" width="26" height="4" rx="2" fill="#888888" fill-opacity="0.48"></rect>
      <rect x="30" y="62" width="16" height="4" rx="2" fill="#888888" fill-opacity="0.48"></rect>
      <rect x="48.68" y="62" width="4" height="4" rx="2" fill="#888888" fill-opacity="0.48"></rect>
      <rect x="55.345" y="62" width="15.32" height="4" rx="2" fill="#888888" fill-opacity="0.48"></rect>
      <rect x="30" y="54" width="24" height="4" rx="2" fill="#888888" fill-opacity="0.48"></rect>
      <rect x="56.672" y="54" width="8" height="4" rx="2" fill="#888888" fill-opacity="0.48"></rect>
      <rect x="66.664" y="54" width="4" height="4" rx="2" fill="#888888" fill-opacity="0.48"></rect>
      <rect x="30" y="46" width="18" height="4" rx="2" fill="#888888" fill-opacity="0.48"></rect>
      <rect x="50.672" y="46" width="19.992" height="4" rx="2" fill="#888888" fill-opacity="0.48"></rect>
      <rect x="30" y="38" width="7.384" height="4" rx="2" fill="#888888" fill-opacity="0.48"></rect>
      <rect x="40.056" y="38" width="14.616" height="4" rx="2" fill="#888888" fill-opacity="0.48"></rect>
      <rect x="57.336" y="38" width="13.328" height="4" rx="2" fill="#888888" fill-opacity="0.48"></rect>
      <rect x="83.408" y="150" width="42.576" height="4" rx="2" fill="#888888" fill-opacity="0.48"></rect>
      <rect x="91.328" y="142" width="24" height="4" rx="2" fill="#888888" fill-opacity="0.48"></rect>
      <rect x="96.664" y="134" width="10.672" height="4" rx="2" fill="#888888" fill-opacity="0.48"></rect>
      <rect x="97.993" y="126" width="11.848" height="4" rx="2" fill="#888888" fill-opacity="0.48"></rect>
      <rect x="136.504" y="126" width="22.672" height="4" rx="2" fill="#888888" fill-opacity="0.48"></rect>
      <rect x="98.792" y="118" width="22.376" height="4" rx="2" fill="#888888" fill-opacity="0.48"></rect>
      <rect x="130.504" y="118" width="29.336" height="4" rx="2" fill="#888888" fill-opacity="0.48"></rect>
      <rect x="98.792" y="110" width="14.784" height="4" rx="2" fill="#888888" fill-opacity="0.48"></rect>
      <rect x="116.24" y="110" width="12.272" height="4" rx="2" fill="#888888" fill-opacity="0.48"></rect>
      <rect x="131.176" y="110" width="20" height="4" rx="2" fill="#888888" fill-opacity="0.48"></rect>
      <rect x="98.792" y="102" width="7.712" height="4" rx="2" fill="#888888" fill-opacity="0.48"></rect>
      <rect x="109.168" y="102" width="22.672" height="4" rx="2" fill="#888888" fill-opacity="0.48"></rect>
      <rect x="98.792" y="94" width="21.048" height="4" rx="2" fill="#888888" fill-opacity="0.48"></rect>
      <rect x="98.792" y="86" width="15.712" height="4" rx="2" fill="#888888" fill-opacity="0.48"></rect>
      <rect x="98.792" y="78" width="12.384" height="4" rx="2" fill="#888888" fill-opacity="0.48"></rect>
      <rect x="98.792" y="70" width="12.384" height="4" rx="2" fill="#888888" fill-opacity="0.48"></rect>
      <rect x="98.792" y="62" width="4" height="4" rx="2" fill="#888888" fill-opacity="0.48"></rect>
      <rect x="105.456" y="62" width="5.72" height="4" rx="2" fill="#888888" fill-opacity="0.48"></rect>
      <rect x="98.792" y="54" width="8" height="4" rx="2" fill="#888888" fill-opacity="0.48"></rect>
      <rect x="109.456" y="54" width="5.088" height="4" rx="2" fill="#888888" fill-opacity="0.48"></rect>
      <rect x="98.792" y="46" width="5.088" height="4" rx="2" fill="#888888" fill-opacity="0.48"></rect>
      <rect x="106.544" y="46" width="12.672" height="4" rx="2" fill="#888888" fill-opacity="0.48"></rect>
      <rect x="98.792" y="38" width="13.328" height="4" rx="2" fill="#888888" fill-opacity="0.48"></rect>
      <rect x="114.784" y="38" width="15.32" height="4" rx="2" fill="#888888" fill-opacity="0.48"></rect>
      <rect x="171.328" y="150" width="15.832" height="4" rx="2" fill="#888888" fill-opacity="0.48"></rect>
      <rect x="180.664" y="142" width="6.496" height="4" rx="2" fill="#888888" fill-opacity="0.48"></rect>
      <rect x="175.152" y="94" width="12.008" height="4" rx="2" fill="#888888" fill-opacity="0.48"></rect>
      <rect x="163.832" y="86" width="23.328" height="4" rx="2" fill="#888888" fill-opacity="0.48"></rect>
      <rect x="148.504" y="78" width="38.656" height="4" rx="2" fill="#888888" fill-opacity="0.48"></rect>
      <rect x="143.168" y="70" width="14.616" height="4" rx="2" fill="#888888" fill-opacity="0.48"></rect>
      <rect x="144.504" y="62" width="8.52" height="4" rx="2" fill="#888888" fill-opacity="0.48"></rect>
      <rect x="167.48" y="70" width="19.68" height="4" rx="2" fill="#888888" fill-opacity="0.48"></rect>
      <rect x="177.152" y="62" width="10.008" height="4" rx="2" fill="#888888" fill-opacity="0.48"></rect>
      <rect x="182.544" y="54" width="4.616" height="4" rx="2" fill="#888888" fill-opacity="0.48"></rect>
      <rect x="176.544" y="46" width="10.616" height="4" rx="2" fill="#888888" fill-opacity="0.48"></rect>
      <rect x="165.872" y="38" width="21.288" height="4" rx="2" fill="#888888" fill-opacity="0.48"></rect>
      <rect x="30" y="30" width="157.16" height="4" rx="2" fill="#888888" fill-opacity="0.48"></rect>
   </g>
   <path id="banner-text" d="M 254.96 30 c -3.04 0 -5.68 0.96 -7.76 2.96 -2.08 1.92 -3.12 4.32 -3.12 7.2 0 2.88 1.04 5.36 3.12 7.36 2.08 1.84 4.72 2.8 7.76 2.8 3.2 0 5.76 -0.96 7.76 -2.96 2.08 -2.08 3.12 -4.64 3.12 -7.6 0 -2.8 -1.04 -5.12 -3.12 -6.88 C 260.64 30.96 258.08 30 254.96 30 Z m 569.12 0 c -3.04 0 -5.68 0.96 -7.76 2.96 -2.08 1.92 -3.12 4.32 -3.12 7.2 0 2.88 1.04 5.36 3.12 7.36 2.08 1.84 4.72 2.8 7.76 2.8 3.2 0 5.76 -0.96 7.76 -2.96 2.08 -2.08 3.12 -4.64 3.12 -7.6 0 -2.8 -1.04 -5.12 -3.12 -6.88 C 829.76 30.96 827.2 30 824.08 30 Z m 58.88 3.12 c -8.24 0 -14.56 2.24 -19.12 6.8 -4.48 4.4 -6.8 10.56 -6.8 18.32 v 4.56 h -11.92 v 13.6 h 11.92 v 58.32 H 874 V 76.4 h 19.44 V 62.8 h -20 v -4.32 c 0 -7.76 3.6 -11.68 10.72 -11.68 3.36 0 6.48 1.04 9.36 3.04 l 4.8 -12.8 c -3.76 -2.64 -8.8 -3.92 -15.36 -3.92 z M 407.84 34.08 V 134.72 H 424 v -9.36 c 2.8 3.44 6.24 6 10.32 7.76 4.16 1.68 8.72 2.56 13.68 2.56 7.04 0 13.36 -1.52 18.88 -4.64 5.6 -3.04 10 -7.36 13.12 -12.96 3.2 -5.76 4.8 -12.24 4.8 -19.6 0 -7.28 -1.6 -13.76 -4.8 -19.36 -3.12 -5.6 -7.52 -9.92 -13.12 -13.04 -5.52 -3.04 -11.84 -4.64 -18.88 -4.64 -4.72 0 -9.04 0.88 -12.96 2.48 -3.92 1.6 -7.28 4 -10.24 7.2 V 34.08 Z M 760.32 46.32 V 62.8 H 748.4 v 13.6 h 11.92 v 34.88 c 0 7.92 2.16 14 6.56 18.16 4.32 4.16 10.48 6.24 18.4 6.24 3.2 0 6.16 -0.4 8.96 -1.2 2.88 -0.88 5.36 -2.08 7.36 -3.68 l -4.8 -12.08 c -2.48 2 -5.68 2.96 -9.44 2.96 -3.28 0 -5.76 -0.88 -7.52 -2.64 -1.68 -1.92 -2.56 -4.64 -2.56 -8.16 V 76.4 h 19.44 V 62.8 H 777.28 V 46.32 Z m -448.8 15.12 c -9.76 0 -17.52 2.08 -23.28 6.24 -5.76 4.08 -8.56 9.6 -8.56 16.48 0 5.2 1.36 9.36 4.08 12.32 2.8 2.88 6 4.96 9.76 6.08 3.76 1.2 8.64 2.24 14.64 3.12 5.68 0.96 9.84 1.84 12.32 2.88 2.64 0.96 3.92 2.72 3.92 5.28 0 5.36 -5.04 8 -15.2 8 -4.4 0 -8.88 -0.64 -13.52 -1.92 -4.56 -1.36 -8.4 -3.12 -11.68 -5.28 l -6.48 12.88 c 3.28 2.4 7.76 4.32 13.44 5.84 5.6 1.52 11.28 2.32 17.2 2.32 10.08 0 18.08 -2 24 -6.08 5.84 -4.08 8.8 -9.52 8.8 -16.32 0 -5.12 -1.36 -9.12 -4.08 -11.92 -2.56 -2.8 -5.76 -4.8 -9.44 -6 -3.76 -1.12 -8.48 -2.16 -14.24 -3.12 -5.84 -0.96 -10.08 -2 -12.88 -3.12 -2.72 -1.12 -4.08 -3.12 -4.08 -5.84 0 -2.4 1.28 -4.32 3.76 -5.76 2.64 -1.6 6.4 -2.32 11.44 -2.32 7.68 0 14.56 1.76 20.72 5.44 l 6.48 -12.96 c -3.12 -1.84 -7.2 -3.36 -12.16 -4.48 -4.96 -1.12 -9.92 -1.76 -14.96 -1.76 z m 220.88 0 c -7.12 0 -13.6 1.6 -19.28 4.8 -5.68 3.12 -10.16 7.6 -13.44 13.28 -3.12 5.6 -4.72 11.92 -4.72 18.96 0 7.2 1.6 13.6 4.88 19.28 3.36 5.6 8.08 10 14.08 13.2 6.08 3.12 13.12 4.72 21.04 4.72 6.24 0 11.84 -0.96 16.88 -2.96 4.96 -2 9.04 -4.96 12.32 -8.88 l -9.12 -10.4 c -5.12 5.28 -11.68 7.84 -19.68 7.84 -6.24 0 -11.44 -1.52 -15.68 -4.56 -4.16 -3.2 -6.8 -7.44 -7.76 -12.8 h 56.88 c 0.16 -2.16 0.24 -3.84 0.24 -4.96 0 -7.44 -1.6 -14 -4.72 -19.6 -3.12 -5.68 -7.44 -10.08 -13.04 -13.12 -5.52 -3.2 -11.84 -4.8 -18.88 -4.8 z m 78.56 0 c -6 0 -11.6 0.8 -16.96 2.32 -5.36 1.52 -9.92 3.76 -13.68 6.64 l 6.64 12.4 c 2.72 -2.32 6 -4.08 9.92 -5.28 3.92 -1.28 8 -1.92 12.08 -1.92 5.92 0 10.4 1.36 13.36 4.08 3.12 2.72 4.64 6.56 4.64 11.6 v 1.12 h -18.72 c -10.4 0 -18.08 2 -22.96 6 -4.8 3.84 -7.12 9.04 -7.12 15.6 0 4.16 1.04 7.92 3.2 11.2 2.24 3.28 5.44 5.84 9.52 7.76 4.08 1.84 8.8 2.72 14.24 2.72 5.44 0 10 -0.8 13.84 -2.48 3.92 -1.68 6.88 -4.16 8.96 -7.28 v 8.8 h 16 V 92.24 c 0 -10.32 -2.88 -18 -8.56 -23.04 -5.6 -5.12 -13.76 -7.76 -24.4 -7.76 z m -364.4 0.88 v 74.16 c 0 3.84 -0.88 6.64 -2.56 8.56 -1.68 2 -4.08 2.96 -7.2 2.96 -4.08 0 -7.36 -0.96 -9.92 -2.8 L 222 157.76 c 3.68 2.88 9.12 4.24 16.32 4.24 7.92 0 14.08 -2.32 18.56 -6.96 4.4 -4.56 6.64 -10.88 6.64 -18.96 V 62.32 Z m 418.56 0 v 41.36 c 0 10.56 2.72 18.56 8.24 24 5.6 5.36 13.28 8 22.96 8 4.64 0 9.04 -0.88 13.12 -2.56 4.08 -1.84 7.44 -4.4 10.16 -7.6 v 9.2 h 16.16 V 62.32 H 718.8 v 36.64 c 0 7.04 -1.76 12.48 -5.44 16.24 -3.52 3.68 -8.32 5.6 -14.32 5.6 -5.44 0 -9.68 -1.6 -12.64 -4.8 -2.88 -3.28 -4.32 -8.16 -4.32 -14.64 V 62.32 Z m 150.4 0 v 72.4 h 16.96 v -72.4 z m 78.8 0 31.68 72.72 -1.28 2.8 c -1.6 3.6 -3.44 6.24 -5.36 7.76 -1.92 1.52 -4.4 2.32 -7.36 2.32 -2.24 0 -4.56 -0.48 -6.8 -1.36 -2.16 -0.96 -4.08 -2.16 -5.68 -3.68 l -6.8 12.48 c 2.24 2.08 5.2 3.68 8.72 4.88 3.52 1.2 7.12 1.76 10.72 1.76 6.4 0 11.84 -1.6 16.4 -4.88 4.48 -3.2 8.32 -8.72 11.52 -16.56 L 974 62.32 H 957.68 L 934.8 115.84 912 62.32 Z M 532.4 75.04 c 5.52 0 10.16 1.6 13.84 4.88 3.68 3.28 5.92 7.52 6.64 12.72 h -41.12 c 0.8 -5.28 3.12 -9.52 6.8 -12.72 3.84 -3.28 8.4 -4.88 13.84 -4.88 z m -86.24 0.8 c 6.24 0 11.28 2.08 15.28 6.24 4.08 4.16 6.16 9.68 6.16 16.4 0 6.8 -2.08 12.32 -6.16 16.48 -4 4.16 -9.04 6.24 -15.28 6.24 -4.08 0 -7.76 -0.96 -11.04 -2.72 -3.28 -1.92 -5.84 -4.56 -7.68 -8 -1.92 -3.44 -2.88 -7.44 -2.88 -12 0 -4.48 0.96 -8.48 2.88 -11.92 1.84 -3.44 4.4 -6.08 7.68 -7.84 3.28 -1.92 6.96 -2.88 11.04 -2.88 z M 352 90 v 14.08 h 37.28 V 90 Z m 257.44 13.68 h 17.52 v 8.4 c -1.36 3.6 -3.68 6.4 -7.04 8.4 -3.28 1.92 -7.04 2.88 -11.28 2.88 -4.32 0 -7.76 -0.96 -10.16 -2.72 -2.48 -1.84 -3.68 -4.24 -3.68 -7.36 0 -6.4 4.88 -9.6 14.64 -9.6 Z" fill="#333333"></path>
</svg>