<svg xmlns="http://www.w3.org/2000/svg" version="1.1" viewBox="0 0 24 24"><rect x="3.8340001" y="18.5" width="4.6859999" height="1" rx="0.5" fill="#ffc107" /><rect x="2.177" y="16.5" width="8" height="1" rx="0.5" fill="#ffc107" /><rect x="3.343" y="14.5" width="1" height="1" rx="0.5" fill="#ffc107" /><rect x="7.593" y="14.5" width="2.85" height="1" rx="0.5" fill="#ffc107" /><rect x="7.593" y="12.5" width="2.85" height="1" rx="0.5" fill="#ffc107" /><rect x="7.5929999" y="10.5" width="2.8499999" height="1" rx="0.5" fill="#ffc107" /><rect x="7.5929999" y="8.5" width="2.8499999" height="1" rx="0.5" fill="#ffc107" /><rect x="7.5929999" y="6.5" width="2.8499999" height="1" rx="0.5" fill="#ffc107" /><rect x="7.5929999" y="4.5" width="2.8499999" height="1" rx="0.5" fill="#ffc107" /><rect x="14.51" y="18.5" width="5" height="1" rx="0.5" fill="#ffc107" /><rect x="12.177" y="16.5" width="9.333" height="1" rx="0.5" fill="#ffc107" /><rect x="13.907" y="14.5" width="1" height="1" rx="0.5" fill="#ffc107" /><rect x="18.74" y="14.5" width="3.083" height="1" rx="0.5" fill="#ffc107" /><rect x="15.24" y="12.5" width="6" height="1" rx="0.5" fill="#ffc107" /><rect x="13.073" y="10.5" width="5.5" height="1" rx="0.5" fill="#ffc107" /><rect x="12.657" y="8.5" width="3.3329999" height="1" rx="0.5" fill="#ffc107" /><rect x="18.233" y="8.5" width="1" height="1" rx="0.5" fill="#ffc107" /><rect x="13.078" y="6.5" width="7.8330002" height="1" rx="0.5" fill="#ffc107" /><rect x="14.995" y="4.5" width="3.8329999" height="1" rx="0.5" fill="#ffc107" /></svg>
