<svg xmlns="http://www.w3.org/2000/svg" viewBox="0 0 24 24" version="1.0"><rect width="1" height="1" x="6" y="3" fill="#ffca28" rx="0.5" ry="0.5"/><rect width="2" height="1" x="11" y="3" fill="#ef6c00" rx="0.5" ry="0.5"/><rect width="1" height="1" x="17" y="3" fill="#ffca28" rx="0.5" ry="0.5"/><rect width="3" height="1" x="6" y="5" fill="#ffca28" rx="0.5" ry="0.5"/><rect width="4" height="1" x="10" y="5" fill="#ef6c00" rx="0.5" ry="0.5"/><rect width="3" height="1" x="15" y="5" fill="#ffca28" rx="0.5" ry="0.5"/><rect width="4" height="1" x="6" y="7" fill="#ffca28" rx="0.5" ry="0.5"/><rect width="2" height="1" x="11" y="7" fill="#ef6c00" rx="0.5" ry="0.5"/><rect width="4" height="1" x="14" y="7" fill="#ffca28" rx="0.5" ry="0.5"/><rect width="4" height="1" x="6" y="9" fill="#ffca28" rx="0.5" ry="0.5"/><rect width="2" height="1" x="11" y="9" fill="#ef6c00" rx="0.5" ry="0.5"/><rect width="4" height="1" x="14" y="9" fill="#ffca28" rx="0.5" ry="0.5"/><rect width="10" height="1" x="7" y="11" fill="#ffca28" rx="0.5" ry="0.5"/><rect width="1" height="1" x="3" y="13" fill="#00c853" rx="0.5" ry="0.5"/><rect width="6" height="1" x="9" y="13" fill="#ffca28" rx="0.5" ry="0.5"/><rect width="1" height="1" x="20" y="13" fill="#00c853" rx="0.5" ry="0.5"/><rect width="4" height="1" x="3" y="15" fill="#00c853" rx="0.5" ry="0.5"/><rect width="2" height="1" x="11" y="15" fill="#00c853" rx="0.5" ry="0.5"/><rect width="4" height="1" x="17" y="15" fill="#00c853" rx="0.5" ry="0.5"/><rect width="4" height="1" x="5" y="17" fill="#00c853" rx="0.5" ry="0.5"/><rect width="2" height="1" x="11" y="17" fill="#00c853" rx="0.5" ry="0.5"/><rect width="4" height="1" x="15" y="17" fill="#00c853" rx="0.5" ry="0.5"/><rect width="12" height="1" x="6" y="19" fill="#00c853" rx="0.5" ry="0.5"/><rect width="6" height="1" x="9" y="21" fill="#00c853" rx="0.5" ry="0.5"/></svg>
