<svg xmlns="http://www.w3.org/2000/svg" viewBox="0 0 240 240"><g id="tulip"><rect width="5" height="5" x="60" y="25" fill="#ffca28" rx="2.5" ry="2.5"/><rect width="10" height="5" x="115" y="25" fill="#ef6c00" rx="2.5" ry="2.5"/><rect width="5" height="5" x="175" y="25" fill="#ffca28" rx="2.5" ry="2.5"/><rect width="17" height="5" x="60" y="35" fill="#ffca28" rx="2.5" ry="2.5"/><rect width="30" height="5" x="105" y="35" fill="#ef6c00" rx="2.5" ry="2.5"/><rect width="17" height="5" x="163" y="35" fill="#ffca28" rx="2.5" ry="2.5"/><rect width="30" height="5" x="60" y="45" fill="#ffca28" rx="2.5" ry="2.5"/><rect width="40" height="5" x="100" y="45" fill="#ef6c00" rx="2.5" ry="2.5"/><rect width="30" height="5" x="150" y="45" fill="#ffca28" rx="2.5" ry="2.5"/><rect width="35" height="5" x="60" y="55" fill="#ffca28" rx="2.5" ry="2.5"/><rect width="30" height="5" x="105" y="55" fill="#ef6c00" rx="2.5" ry="2.5"/><rect width="35" height="5" x="145" y="55" fill="#ffca28" rx="2.5" ry="2.5"/><rect width="40" height="5" x="60" y="65" fill="#ffca28" rx="2.5" ry="2.5"/><rect width="20" height="5" x="110" y="65" fill="#ef6c00" rx="2.5" ry="2.5"/><rect width="40" height="5" x="140" y="65" fill="#ffca28" rx="2.5" ry="2.5"/><rect width="40" height="5" x="60" y="75" fill="#ffca28" rx="2.5" ry="2.5"/><rect width="20" height="5" x="110" y="75" fill="#ef6c00" rx="2.5" ry="2.5"/><rect width="40" height="5" x="140" y="75" fill="#ffca28" rx="2.5" ry="2.5"/><rect width="40" height="5" x="60" y="85" fill="#ffca28" rx="2.5" ry="2.5"/><rect width="20" height="5" x="110" y="85" fill="#ef6c00" rx="2.5" ry="2.5"/><rect width="40" height="5" x="140" y="85" fill="#ffca28" rx="2.5" ry="2.5"/><rect width="35" height="5" x="65" y="95" fill="#ffca28" rx="2.5" ry="2.5"/><rect width="10" height="5" x="115" y="95" fill="#ef6c00" rx="2.5" ry="2.5"/><rect width="35" height="5" x="140" y="95" fill="#ffca28" rx="2.5" ry="2.5"/><rect width="40" height="5" x="70" y="105" fill="#ffca28" rx="2.5" ry="2.5"/><rect width="40" height="5" x="130" y="105" fill="#ffca28" rx="2.5" ry="2.5"/><rect width="90" height="5" x="75" y="115" fill="#ffca28" rx="2.5" ry="2.5"/><rect width="5" height="5" x="30" y="125" fill="#00c853" rx="2.5" ry="2.5"/><rect width="70" height="5" x="85" y="125" fill="#ffca28" rx="2.5" ry="2.5"/><rect width="5" height="5" x="205" y="125" fill="#00c853" rx="2.5" ry="2.5"/><rect width="25" height="5" x="30" y="135" fill="#00c853" rx="2.5" ry="2.5"/><rect width="50" height="5" x="95" y="135" fill="#ffca28" rx="2.5" ry="2.5"/><rect width="25" height="5" x="185" y="135" fill="#00c853" rx="2.5" ry="2.5"/><rect width="30" height="5" x="35" y="145" fill="#00c853" rx="2.5" ry="2.5"/><rect width="20" height="5" x="110" y="145" fill="#00c853" rx="2.5" ry="2.5"/><rect width="30" height="5" x="175" y="145" fill="#00c853" rx="2.5" ry="2.5"/><rect width="45" height="5" x="40" y="155" fill="#00c853" rx="2.5" ry="2.5"/><rect width="20" height="5" x="110" y="155" fill="#00c853" rx="2.5" ry="2.5"/><rect width="45" height="5" x="155" y="155" fill="#00c853" rx="2.5" ry="2.5"/><rect width="50" height="5" x="45" y="165" fill="#00c853" rx="2.5" ry="2.5"/><rect width="20" height="5" x="110" y="165" fill="#00c853" rx="2.5" ry="2.5"/><rect width="50" height="5" x="145" y="165" fill="#00c853" rx="2.5" ry="2.5"/><rect width="50" height="5" x="55" y="175" fill="#00c853" rx="2.5" ry="2.5"/><rect width="20" height="5" x="110" y="175" fill="#00c853" rx="2.5" ry="2.5"/><rect width="50" height="5" x="135" y="175" fill="#00c853" rx="2.5" ry="2.5"/><rect width="120" height="5" x="60" y="185" fill="#00c853" rx="2.5" ry="2.5"/><rect width="100" height="5" x="70" y="195" fill="#00c853" rx="2.5" ry="2.5"/><rect width="70" height="5" x="85" y="205" fill="#00c853" rx="2.5" ry="2.5"/></g><g id="waterfall" fill-opacity=".5"><rect width="180" height="5" x="30" y="15" fill="#888888" rx="2.5" ry="2.5"/><rect width="25" height="5" x="30" y="25" fill="#888" rx="2.5" ry="2.5"/><rect width="40" height="5" x="70" y="25" fill="#888" rx="2.5" ry="2.5"/><rect width="40" height="5" x="130" y="25" fill="#888" rx="2.5" ry="2.5"/><rect width="25" height="5" x="185" y="25" fill="#888" rx="2.5" ry="2.5"/><rect width="25" height="5" x="30" y="35" fill="#888" rx="2.5" ry="2.5"/><rect width="13" height="5" x="84.5" y="35" fill="#888" rx="2.5" ry="2.5"/><rect width="13.5" height="5" x="142.5" y="35" fill="#888" rx="2.5" ry="2.5"/><rect width="25" height="5" x="185" y="35" fill="#888" rx="2.5" ry="2.5"/><rect width="25" height="5" x="30" y="45" fill="#888" rx="2.5" ry="2.5"/><rect width="25" height="5" x="185" y="45" fill="#888" rx="2.5" ry="2.5"/><rect width="25" height="5" x="30" y="55" fill="#888" rx="2.5" ry="2.5"/><rect width="25" height="5" x="185" y="55" fill="#888" rx="2.5" ry="2.5"/><rect width="25" height="5" x="30" y="65" fill="#888" rx="2.5" ry="2.5"/><rect width="25" height="5" x="185" y="65" fill="#888" rx="2.5" ry="2.5"/><rect width="25" height="5" x="30" y="75" fill="#888" rx="2.5" ry="2.5"/><rect width="25" height="5" x="185" y="75" fill="#888" rx="2.5" ry="2.5"/><rect width="25" height="5" x="30" y="85" fill="#888" rx="2.5" ry="2.5"/><rect width="25" height="5" x="185" y="85" fill="#888" rx="2.5" ry="2.5"/><rect width="30" height="5" x="30" y="95" fill="#888" rx="2.5" ry="2.5"/><rect width="30" height="5" x="180" y="95" fill="#888" rx="2.5" ry="2.5"/><rect width="35" height="5" x="30" y="105" fill="#888" rx="2.5" ry="2.5"/><rect width="35" height="5" x="175" y="105" fill="#888" rx="2.5" ry="2.5"/><rect width="40" height="5" x="30" y="115" fill="#888" rx="2.5" ry="2.5"/><rect width="40" height="5" x="170" y="115" fill="#888" rx="2.5" ry="2.5"/><rect width="40" height="5" x="40" y="125" fill="#888" rx="2.5" ry="2.5"/><rect width="40" height="5" x="160" y="125" fill="#888" rx="2.5" ry="2.5"/><rect width="30" height="5" x="60" y="135" fill="#888" rx="2.5" ry="2.5"/><rect width="30" height="5" x="150" y="135" fill="#888" rx="2.5" ry="2.5"/><rect width="35" height="5" x="70" y="145" fill="#888" rx="2.5" ry="2.5"/><rect width="35" height="5" x="135" y="145" fill="#888" rx="2.5" ry="2.5"/><rect width="5" height="5" x="30" y="155" fill="#888" rx="2.5" ry="2.5"/><rect width="15" height="5" x="90" y="155" fill="#888" rx="2.5" ry="2.5"/><rect width="15" height="5" x="135" y="155" fill="#888" rx="2.5" ry="2.5"/><rect width="5" height="5" x="205" y="155" fill="#888" rx="2.5" ry="2.5"/><rect width="10" height="5" x="30" y="165" fill="#888" rx="2.5" ry="2.5"/><rect width="5" height="5" x="100" y="165" fill="#888" rx="2.5" ry="2.5"/><rect width="5" height="5" x="135" y="165" fill="#888" rx="2.5" ry="2.5"/><rect width="10" height="5" x="200" y="165" fill="#888" rx="2.5" ry="2.5"/><rect width="20" height="5" x="30" y="175" fill="#888" rx="2.5" ry="2.5"/><rect width="20" height="5" x="190" y="175" fill="#888" rx="2.5" ry="2.5"/><rect width="25" height="5" x="30" y="185" fill="#888" rx="2.5" ry="2.5"/><rect width="25" height="5" x="185" y="185" fill="#888" rx="2.5" ry="2.5"/><rect width="35" height="5" x="30" y="195" fill="#888" rx="2.5" ry="2.5"/><rect width="35" height="5" x="175" y="195" fill="#888" rx="2.5" ry="2.5"/><rect width="50" height="5" x="30" y="205" fill="#888" rx="2.5" ry="2.5"/><rect width="50" height="5" x="160" y="205" fill="#888" rx="2.5" ry="2.5"/><rect width="180" height="5" x="30" y="215" fill="#888888" rx="2.5" ry="2.5"/></g></svg>
