<?xml version="1.0" encoding="UTF-8" standalone="no"?><svg xmlns="http://www.w3.org/2000/svg" version="1.1" viewBox="0 0 217.168 270"><g id="tulip" transform="matrix(0.873, 0, 0, 0.873, 3.807, 16.903)"><rect width="5" height="5" x="60" y="25" fill="#ffca28" rx="2.5" ry="2.5" /><rect width="10" height="5" x="115" y="25" fill="#ef6c00" rx="2.5" ry="2.5" /><rect width="5" height="5" x="175" y="25" fill="#ffca28" rx="2.5" ry="2.5" /><rect width="17" height="5" x="60" y="35" fill="#ffca28" rx="2.5" ry="2.5" /><rect width="30" height="5" x="105" y="35" fill="#ef6c00" rx="2.5" ry="2.5" /><rect width="17" height="5" x="163" y="35" fill="#ffca28" rx="2.5" ry="2.5" /><rect width="30" height="5" x="60" y="45" fill="#ffca28" rx="2.5" ry="2.5" /><rect width="40" height="5" x="100" y="45" fill="#ef6c00" rx="2.5" ry="2.5" /><rect width="30" height="5" x="150" y="45" fill="#ffca28" rx="2.5" ry="2.5" /><rect width="35" height="5" x="60" y="55" fill="#ffca28" rx="2.5" ry="2.5" /><rect width="30" height="5" x="105" y="55" fill="#ef6c00" rx="2.5" ry="2.5" /><rect width="35" height="5" x="145" y="55" fill="#ffca28" rx="2.5" ry="2.5" /><rect width="40" height="5" x="60" y="65" fill="#ffca28" rx="2.5" ry="2.5" /><rect width="20" height="5" x="110" y="65" fill="#ef6c00" rx="2.5" ry="2.5" /><rect width="40" height="5" x="140" y="65" fill="#ffca28" rx="2.5" ry="2.5" /><rect width="40" height="5" x="60" y="75" fill="#ffca28" rx="2.5" ry="2.5" /><rect width="20" height="5" x="110" y="75" fill="#ef6c00" rx="2.5" ry="2.5" /><rect width="40" height="5" x="140" y="75" fill="#ffca28" rx="2.5" ry="2.5" /><rect width="40" height="5" x="60" y="85" fill="#ffca28" rx="2.5" ry="2.5" /><rect width="20" height="5" x="110" y="85" fill="#ef6c00" rx="2.5" ry="2.5" /><rect width="40" height="5" x="140" y="85" fill="#ffca28" rx="2.5" ry="2.5" /><rect width="35" height="5" x="65" y="95" fill="#ffca28" rx="2.5" ry="2.5" /><rect width="10" height="5" x="115" y="95" fill="#ef6c00" rx="2.5" ry="2.5" /><rect width="35" height="5" x="140" y="95" fill="#ffca28" rx="2.5" ry="2.5" /><rect width="40" height="5" x="70" y="105" fill="#ffca28" rx="2.5" ry="2.5" /><rect width="40" height="5" x="130" y="105" fill="#ffca28" rx="2.5" ry="2.5" /><rect width="90" height="5" x="75" y="115" fill="#ffca28" rx="2.5" ry="2.5" /><rect width="5" height="5" x="30" y="125" fill="#00c853" rx="2.5" ry="2.5" /><rect width="70" height="5" x="85" y="125" fill="#ffca28" rx="2.5" ry="2.5" /><rect width="5" height="5" x="205" y="125" fill="#00c853" rx="2.5" ry="2.5" /><rect width="25" height="5" x="30" y="135" fill="#00c853" rx="2.5" ry="2.5" /><rect width="50" height="5" x="95" y="135" fill="#ffca28" rx="2.5" ry="2.5" /><rect width="25" height="5" x="185" y="135" fill="#00c853" rx="2.5" ry="2.5" /><rect width="30" height="5" x="35" y="145" fill="#00c853" rx="2.5" ry="2.5" /><rect width="20" height="5" x="110" y="145" fill="#00c853" rx="2.5" ry="2.5" /><rect width="30" height="5" x="175" y="145" fill="#00c853" rx="2.5" ry="2.5" /><rect width="45" height="5" x="40" y="155" fill="#00c853" rx="2.5" ry="2.5" /><rect width="20" height="5" x="110" y="155" fill="#00c853" rx="2.5" ry="2.5" /><rect width="45" height="5" x="155" y="155" fill="#00c853" rx="2.5" ry="2.5" /><rect width="50" height="5" x="45" y="165" fill="#00c853" rx="2.5" ry="2.5" /><rect width="20" height="5" x="110" y="165" fill="#00c853" rx="2.5" ry="2.5" /><rect width="50" height="5" x="145" y="165" fill="#00c853" rx="2.5" ry="2.5" /><rect width="50" height="5" x="55" y="175" fill="#00c853" rx="2.5" ry="2.5" /><rect width="20" height="5" x="110" y="175" fill="#00c853" rx="2.5" ry="2.5" /><rect width="50" height="5" x="135" y="175" fill="#00c853" rx="2.5" ry="2.5" /><rect width="120" height="5" x="60" y="185" fill="#00c853" rx="2.5" ry="2.5" /><rect width="100" height="5" x="70" y="195" fill="#00c853" rx="2.5" ry="2.5" /><rect width="70" height="5" x="85" y="205" fill="#00c853" rx="2.5" ry="2.5" /></g><g id="waterfall" fill-opacity="0.5" transform="matrix(0.873,0,0,0.873,3.807,16.903)"><rect width="180" height="5" x="30" y="15" fill="#888888" rx="2.5" ry="2.5"/><rect width="25" height="5" x="30" y="25" fill="#888888" rx="2.5" ry="2.5"/><rect width="40" height="5" x="70" y="25" fill="#888888" rx="2.5" ry="2.5"/><rect width="40" height="5" x="130" y="25" fill="#888888" rx="2.5" ry="2.5"/><rect width="25" height="5" x="185" y="25" fill="#888888" rx="2.5" ry="2.5"/><rect width="25" height="5" x="30" y="35" fill="#888888" rx="2.5" ry="2.5"/><rect width="13" height="5" x="84.5" y="35" fill="#888" rx="2.5" ry="2.5"/><rect width="13.5" height="5" x="142.5" y="35" fill="#888" rx="2.5" ry="2.5"/><rect width="25" height="5" x="185" y="35" fill="#888888" rx="2.5" ry="2.5"/><rect width="25" height="5" x="30" y="45" fill="#888888" rx="2.5" ry="2.5"/><rect width="25" height="5" x="185" y="45" fill="#888888" rx="2.5" ry="2.5"/><rect width="25" height="5" x="30" y="55" fill="#888888" rx="2.5" ry="2.5"/><rect width="25" height="5" x="185" y="55" fill="#888888" rx="2.5" ry="2.5"/><rect width="25" height="5" x="30" y="65" fill="#888888" rx="2.5" ry="2.5"/><rect width="25" height="5" x="185" y="65" fill="#888888" rx="2.5" ry="2.5"/><rect width="25" height="5" x="30" y="75" fill="#888888" rx="2.5" ry="2.5"/><rect width="25" height="5" x="185" y="75" fill="#888888" rx="2.5" ry="2.5"/><rect width="25" height="5" x="30" y="85" fill="#888888" rx="2.5" ry="2.5"/><rect width="25" height="5" x="185" y="85" fill="#888888" rx="2.5" ry="2.5"/><rect width="30" height="5" x="30" y="95" fill="#888888" rx="2.5" ry="2.5"/><rect width="30" height="5" x="180" y="95" fill="#888888" rx="2.5" ry="2.5"/><rect width="35" height="5" x="30" y="105" fill="#888888" rx="2.5" ry="2.5"/><rect width="35" height="5" x="175" y="105" fill="#888888" rx="2.5" ry="2.5"/><rect width="40" height="5" x="30" y="115" fill="#888888" rx="2.5" ry="2.5"/><rect width="40" height="5" x="170" y="115" fill="#888888" rx="2.5" ry="2.5"/><rect width="40" height="5" x="40" y="125" fill="#888888" rx="2.5" ry="2.5"/><rect width="40" height="5" x="160" y="125" fill="#888888" rx="2.5" ry="2.5"/><rect width="30" height="5" x="60" y="135" fill="#888888" rx="2.5" ry="2.5"/><rect width="30" height="5" x="150" y="135" fill="#888888" rx="2.5" ry="2.5"/><rect width="35" height="5" x="70" y="145" fill="#888888" rx="2.5" ry="2.5"/><rect width="35" height="5" x="135" y="145" fill="#888888" rx="2.5" ry="2.5"/><rect width="5" height="5" x="30" y="155" fill="#888888" rx="2.5" ry="2.5"/><rect width="15" height="5" x="90" y="155" fill="#888888" rx="2.5" ry="2.5"/><rect width="15" height="5" x="135" y="155" fill="#888888" rx="2.5" ry="2.5"/><rect width="5" height="5" x="205" y="155" fill="#888888" rx="2.5" ry="2.5"/><rect width="10" height="5" x="30" y="165" fill="#888888" rx="2.5" ry="2.5"/><rect width="5" height="5" x="100" y="165" fill="#888888" rx="2.5" ry="2.5"/><rect width="5" height="5" x="135" y="165" fill="#888888" rx="2.5" ry="2.5"/><rect width="10" height="5" x="200" y="165" fill="#888888" rx="2.5" ry="2.5"/><rect width="20" height="5" x="30" y="175" fill="#888888" rx="2.5" ry="2.5"/><rect width="20" height="5" x="190" y="175" fill="#888888" rx="2.5" ry="2.5"/><rect width="25" height="5" x="30" y="185" fill="#888888" rx="2.5" ry="2.5"/><rect width="25" height="5" x="185" y="185" fill="#888888" rx="2.5" ry="2.5"/><rect width="35" height="5" x="30" y="195" fill="#888888" rx="2.5" ry="2.5"/><rect width="35" height="5" x="175" y="195" fill="#888888" rx="2.5" ry="2.5"/><rect width="50" height="5" x="30" y="205" fill="#888888" rx="2.5" ry="2.5"/><rect width="50" height="5" x="160" y="205" fill="#888888" rx="2.5" ry="2.5"/><rect width="180" height="5" x="30" y="215" fill="#888888" rx="2.5" ry="2.5"/></g><path id="banner-text" d="m 36.89,225 c -0.64,0 -1.19,0.2 -1.62,0.62 -0.43,0.4 -0.65,0.9 -0.65,1.5 0,0.6 0.22,1.12 0.65,1.54 0.43,0.38 0.99,0.59 1.62,0.59 0.67,0 1.2,-0.2 1.62,-0.62 0.43,-0.43 0.65,-0.97 0.65,-1.59 0,-0.59 -0.22,-1.07 -0.65,-1.44 -0.43,-0.4 -0.97,-0.6 -1.62,-0.6 z m 118.95,0 c -0.64,0 -1.19,0.2 -1.62,0.62 -0.43,0.4 -0.65,0.9 -0.65,1.5 0,0.6 0.22,1.12 0.65,1.54 0.43,0.38 0.99,0.59 1.62,0.59 0.67,0 1.2,-0.2 1.62,-0.62 0.43,-0.43 0.65,-0.97 0.65,-1.59 0,-0.59 -0.22,-1.07 -0.65,-1.44 -0.44,-0.4 -0.97,-0.6 -1.63,-0.6 z m 12.31,0.65 c -1.72,0 -3.04,0.47 -4,1.42 -0.94,0.92 -1.42,2.21 -1.42,3.83 v 0.95 h -2.49 v 2.84 h 2.49 v 12.19 h 3.54 v -12.19 h 4.06 v -2.84 h -4.18 v -0.9 c 0,-1.62 0.75,-2.44 2.24,-2.44 0.7,0 1.35,0.22 1.96,0.64 l 1,-2.68 c -0.79,-0.55 -1.84,-0.82 -3.21,-0.82 z m -99.3,0.2 v 21.03 h 3.38 v -1.96 c 0.59,0.72 1.3,1.25 2.16,1.62 0.87,0.35 1.82,0.54 2.86,0.54 1.47,0 2.79,-0.32 3.95,-0.97 1.17,-0.64 2.09,-1.54 2.74,-2.71 0.67,-1.2 1,-2.56 1,-4.1 0,-1.52 -0.33,-2.88 -1,-4.05 -0.65,-1.17 -1.57,-2.07 -2.74,-2.73 -1.15,-0.64 -2.47,-0.97 -3.95,-0.97 -0.99,0 -1.89,0.18 -2.71,0.52 -0.82,0.33 -1.52,0.84 -2.14,1.5 v -7.74 z m 73.67,2.56 v 3.44 h -2.49 v 2.84 h 2.49 v 7.29 c 0,1.66 0.45,2.93 1.37,3.8 0.9,0.87 2.19,1.3 3.85,1.3 0.67,0 1.29,-0.08 1.87,-0.25 0.6,-0.18 1.12,-0.43 1.54,-0.77 l -1,-2.52 c -0.52,0.42 -1.19,0.62 -1.97,0.62 -0.69,0 -1.2,-0.18 -1.57,-0.55 -0.35,-0.4 -0.54,-0.97 -0.54,-1.71 v -7.21 h 4.06 v -2.84 h -4.06 v -3.44 z m -93.8,3.16 c -2.04,0 -3.66,0.43 -4.87,1.3 -1.2,0.85 -1.79,2.01 -1.79,3.44 0,1.09 0.28,1.96 0.85,2.57 0.59,0.6 1.25,1.04 2.04,1.27 0.79,0.25 1.81,0.47 3.06,0.65 1.19,0.2 2.06,0.38 2.57,0.6 0.55,0.2 0.82,0.57 0.82,1.1 0,1.12 -1.05,1.67 -3.18,1.67 -0.92,0 -1.86,-0.13 -2.83,-0.4 -0.95,-0.28 -1.76,-0.65 -2.44,-1.1 l -1.35,2.69 c 0.69,0.5 1.62,0.9 2.81,1.22 1.17,0.32 2.36,0.49 3.59,0.49 2.11,0 3.78,-0.42 5.02,-1.27 1.22,-0.85 1.84,-1.99 1.84,-3.41 0,-1.07 -0.28,-1.91 -0.85,-2.49 -0.54,-0.59 -1.2,-1 -1.97,-1.25 -0.79,-0.23 -1.77,-0.45 -2.98,-0.65 -1.22,-0.2 -2.11,-0.42 -2.69,-0.65 -0.57,-0.23 -0.85,-0.65 -0.85,-1.22 0,-0.5 0.27,-0.9 0.79,-1.2 0.55,-0.33 1.34,-0.48 2.39,-0.48 1.61,0 3.04,0.37 4.33,1.14 l 1.35,-2.71 c -0.65,-0.38 -1.5,-0.7 -2.54,-0.94 -1.04,-0.23 -2.07,-0.37 -3.13,-0.37 z m 46.16,0 c -1.49,0 -2.84,0.33 -4.03,1 -1.19,0.65 -2.12,1.59 -2.81,2.78 -0.65,1.17 -0.99,2.49 -0.99,3.96 0,1.5 0.33,2.84 1.02,4.03 0.7,1.17 1.69,2.09 2.94,2.76 1.27,0.65 2.74,0.99 4.4,0.99 1.3,0 2.47,-0.2 3.53,-0.62 1.04,-0.42 1.89,-1.04 2.57,-1.86 l -1.91,-2.17 c -1.07,1.1 -2.44,1.64 -4.11,1.64 -1.3,0 -2.39,-0.32 -3.28,-0.95 -0.87,-0.67 -1.42,-1.55 -1.62,-2.68 h 11.89 c 0.03,-0.45 0.05,-0.8 0.05,-1.04 0,-1.55 -0.33,-2.93 -0.99,-4.1 -0.65,-1.19 -1.55,-2.11 -2.73,-2.74 -1.15,-0.67 -2.47,-1 -3.95,-1 z m 16.42,0 c -1.25,0 -2.42,0.17 -3.54,0.49 -1.12,0.32 -2.07,0.79 -2.86,1.39 l 1.39,2.59 c 0.57,-0.49 1.25,-0.85 2.07,-1.1 0.82,-0.27 1.67,-0.4 2.52,-0.4 1.24,0 2.17,0.28 2.79,0.85 0.65,0.57 0.97,1.37 0.97,2.42 v 0.23 h -3.91 c -2.17,0 -3.78,0.42 -4.8,1.25 -1,0.8 -1.49,1.89 -1.49,3.26 0,0.87 0.22,1.66 0.67,2.34 0.47,0.69 1.14,1.22 1.99,1.62 0.85,0.38 1.84,0.57 2.98,0.57 1.14,0 2.09,-0.17 2.89,-0.52 0.82,-0.35 1.44,-0.87 1.87,-1.52 v 1.84 h 3.34 V 238 c 0,-2.16 -0.6,-3.76 -1.79,-4.82 -1.17,-1.07 -2.88,-1.62 -5.1,-1.62 z m -76.16,0.18 v 15.5 c 0,0.8 -0.18,1.39 -0.54,1.79 -0.35,0.42 -0.85,0.62 -1.5,0.62 -0.85,0 -1.54,-0.2 -2.07,-0.59 L 30,251.7 c 0.77,0.6 1.91,0.89 3.41,0.89 1.66,0 2.94,-0.49 3.88,-1.45 0.92,-0.95 1.39,-2.27 1.39,-3.96 v -15.42 z m 87.48,0 v 8.64 c 0,2.21 0.57,3.88 1.72,5.02 1.17,1.12 2.78,1.67 4.8,1.67 0.97,0 1.89,-0.18 2.74,-0.54 0.85,-0.38 1.55,-0.92 2.12,-1.59 v 1.92 h 3.38 v -15.13 h -3.54 v 7.66 c 0,1.47 -0.37,2.61 -1.14,3.39 -0.74,0.77 -1.74,1.17 -2.99,1.17 -1.14,0 -2.02,-0.33 -2.64,-1 -0.6,-0.69 -0.9,-1.71 -0.9,-3.06 v -8.16 z m 31.43,0 v 15.13 h 3.54 v -15.13 z m 16.47,0 6.62,15.2 -0.27,0.59 c -0.33,0.75 -0.72,1.3 -1.12,1.62 -0.4,0.32 -0.92,0.49 -1.54,0.49 -0.47,0 -0.95,-0.1 -1.42,-0.28 -0.45,-0.2 -0.85,-0.45 -1.19,-0.77 l -1.42,2.61 c 0.47,0.43 1.09,0.77 1.82,1.02 0.74,0.25 1.49,0.37 2.24,0.37 1.34,0 2.47,-0.33 3.43,-1.02 0.94,-0.67 1.74,-1.82 2.41,-3.46 l 7.09,-16.35 h -3.41 l -4.78,11.19 -4.77,-11.19 z m -75.64,2.66 c 1.15,0 2.12,0.33 2.89,1.02 0.77,0.69 1.24,1.57 1.39,2.66 h -8.59 c 0.17,-1.1 0.65,-1.99 1.42,-2.66 0.8,-0.69 1.76,-1.02 2.89,-1.02 z m -18.02,0.17 c 1.3,0 2.36,0.43 3.19,1.3 0.85,0.87 1.29,2.02 1.29,3.43 0,1.42 -0.43,2.57 -1.29,3.44 -0.84,0.87 -1.89,1.3 -3.19,1.3 -0.85,0 -1.62,-0.2 -2.31,-0.57 -0.69,-0.4 -1.22,-0.95 -1.61,-1.67 -0.4,-0.72 -0.6,-1.55 -0.6,-2.51 0,-0.94 0.2,-1.77 0.6,-2.49 0.38,-0.72 0.92,-1.27 1.61,-1.64 0.69,-0.4 1.45,-0.6 2.31,-0.6 z m -19.68,2.96 v 2.94 h 7.79 v -2.94 z m 53.8,2.86 h 3.66 v 1.76 c -0.28,0.75 -0.77,1.34 -1.47,1.76 -0.69,0.4 -1.47,0.6 -2.36,0.6 -0.9,0 -1.62,-0.2 -2.12,-0.57 -0.52,-0.38 -0.77,-0.89 -0.77,-1.54 0,-1.34 1.02,-2.01 3.06,-2.01 z" fill="#cccccc" /></svg>
