<?xml version="1.0" encoding="UTF-8" standalone="no"?>
<svg xmlns="http://www.w3.org/2000/svg" version="1.1" viewBox="0 0 217.168 237">
   <g id="javascript">
      <rect x="43.256001" y="150" width="37.487999" height="4" rx="2" fill="#ffca28" />
      <rect x="36.584" y="142" width="52.080002" height="4" rx="2" fill="#ffca28" />
      <rect x="30" y="134" width="64" height="4" rx="2" fill="#ffca28" />
      <rect x="35.327999" y="126" width="16" height="4" rx="2" fill="#ffca28" />
      <rect x="41.327999" y="118" width="4" height="4" rx="2" fill="#ffca28" />
      <rect x="71.328003" y="126" width="24" height="4" rx="2" fill="#ffca28" />
      <rect x="73.328003" y="118" width="22.799999" height="4" rx="2" fill="#ffca28" />
      <rect x="73.328003" y="110" width="22.799999" height="4" rx="2" fill="#ffca28" />
      <rect x="73.328003" y="102" width="22.799999" height="4" rx="2" fill="#ffca28" />
      <rect x="73.328003" y="94" width="22.799999" height="4" rx="2" fill="#ffca28" />
      <rect x="73.328003" y="86" width="22.799999" height="4" rx="2" fill="#ffca28" />
      <rect x="73.328003" y="78" width="22.799999" height="4" rx="2" fill="#ffca28" />
      <rect x="73.328003" y="70" width="22.799999" height="4" rx="2" fill="#ffca28" />
      <rect x="73.328003" y="62" width="22.799999" height="4" rx="2" fill="#ffca28" />
      <rect x="73.328003" y="54" width="22.799999" height="4" rx="2" fill="#ffca28" />
      <rect x="73.328003" y="46" width="22.799999" height="4" rx="2" fill="#ffca28" />
      <rect x="73.328003" y="38" width="22.799999" height="4" rx="2" fill="#ffca28" />
      <rect x="128.664" y="150" width="40" height="4" rx="2" fill="#ffca28" />
      <rect x="118" y="142" width="60" height="4" rx="2" fill="#ffca28" />
      <rect x="110" y="134" width="74.664001" height="4" rx="2" fill="#ffca28" />
      <rect x="112.504" y="126" width="21.336" height="4" rx="2" fill="#ffca28" />
      <rect x="123.84" y="118" width="4" height="4" rx="2" fill="#ffca28" />
      <rect x="161.84" y="126" width="24.664" height="4" rx="2" fill="#ffca28" />
      <rect x="162.504" y="118" width="24.664" height="4" rx="2" fill="#ffca28" />
      <rect x="153.84" y="110" width="32" height="4" rx="2" fill="#ffca28" />
      <rect x="134.504" y="102" width="48" height="4" rx="2" fill="#ffca28" />
      <rect x="122.504" y="94" width="50" height="4" rx="2" fill="#ffca28" />
      <rect x="117.168" y="86" width="44" height="4" rx="2" fill="#ffca28" />
      <rect x="113.84" y="78" width="32" height="4" rx="2" fill="#ffca28" />
      <rect x="113.84" y="70" width="26.664" height="4" rx="2" fill="#ffca28" />
      <rect x="113.84" y="62" width="28" height="4" rx="2" fill="#ffca28" />
      <rect x="160.448" y="70" width="4" height="4" rx="2" fill="#ffca28" />
      <rect x="155.688" y="62" width="18.799999" height="4" rx="2" fill="#ffca28" />
      <rect x="117.208" y="54" width="62.664001" height="4" rx="2" fill="#ffca28" />
      <rect x="121.88" y="46" width="52" height="4" rx="2" fill="#ffca28" />
      <rect x="132.54401" y="38" width="30.664" height="4" rx="2" fill="#ffca28" />
   </g>
   <g id="waterfall">
      <rect x="30" y="158" width="157.16" height="4" rx="2" fill="#888888" fill-opacity="0.48" />
      <rect x="30" y="150" width="10.592" height="4" rx="2" fill="#888888" fill-opacity="0.48" />
      <rect x="30" y="142" width="4" height="4" rx="2" fill="#888888" fill-opacity="0.48" />
      <rect x="30" y="126" width="4" height="4" rx="2" fill="#888888" fill-opacity="0.48" />
      <rect x="30" y="118" width="8.6560001" height="4" rx="2" fill="#888888" fill-opacity="0.48" />
      <rect x="54" y="126" width="14.616" height="4" rx="2" fill="#888888" fill-opacity="0.48" />
      <rect x="48" y="118" width="22.672001" height="4" rx="2" fill="#888888" fill-opacity="0.48" />
      <rect x="30" y="110" width="22.672001" height="4" rx="2" fill="#888888" fill-opacity="0.48" />
      <rect x="55.345001" y="110" width="15.32" height="4" rx="2" fill="#888888" fill-opacity="0.48" />
      <rect x="30" y="102" width="15.32" height="4" rx="2" fill="#888888" fill-opacity="0.48" />
      <rect x="48" y="102" width="22.672001" height="4" rx="2" fill="#888888" fill-opacity="0.48" />
      <rect x="30" y="94" width="22" height="4" rx="2" fill="#888888" fill-opacity="0.48" />
      <rect x="54.672001" y="94" width="15.992" height="4" rx="2" fill="#888888" fill-opacity="0.48" />
      <rect x="30" y="86" width="8" height="4" rx="2" fill="#888888" fill-opacity="0.48" />
      <rect x="40.672001" y="86" width="24" height="4" rx="2" fill="#888888" fill-opacity="0.48" />
      <rect x="66.664001" y="86" width="4" height="4" rx="2" fill="#888888" fill-opacity="0.48" />
      <rect x="30" y="78" width="22.672001" height="4" rx="2" fill="#888888" fill-opacity="0.48" />
      <rect x="55.345001" y="78" width="15.32" height="4" rx="2" fill="#888888" fill-opacity="0.48" />
      <rect x="30" y="70" width="11.992" height="4" rx="2" fill="#888888" fill-opacity="0.48" />
      <rect x="44.664001" y="70" width="26" height="4" rx="2" fill="#888888" fill-opacity="0.48" />
      <rect x="30" y="62" width="16" height="4" rx="2" fill="#888888" fill-opacity="0.48" />
      <rect x="48.68" y="62" width="4" height="4" rx="2" fill="#888888" fill-opacity="0.48" />
      <rect x="55.345001" y="62" width="15.32" height="4" rx="2" fill="#888888" fill-opacity="0.48" />
      <rect x="30" y="54" width="24" height="4" rx="2" fill="#888888" fill-opacity="0.48" />
      <rect x="56.672001" y="54" width="8" height="4" rx="2" fill="#888888" fill-opacity="0.48" />
      <rect x="66.664001" y="54" width="4" height="4" rx="2" fill="#888888" fill-opacity="0.48" />
      <rect x="30" y="46" width="18" height="4" rx="2" fill="#888888" fill-opacity="0.48" />
      <rect x="50.672001" y="46" width="19.992001" height="4" rx="2" fill="#888888" fill-opacity="0.48" />
      <rect x="30" y="38" width="7.3839998" height="4" rx="2" fill="#888888" fill-opacity="0.48" />
      <rect x="40.056" y="38" width="14.616" height="4" rx="2" fill="#888888" fill-opacity="0.48" />
      <rect x="57.335999" y="38" width="13.328" height="4" rx="2" fill="#888888" fill-opacity="0.48" />
      <rect x="83.407997" y="150" width="42.576" height="4" rx="2" fill="#888888" fill-opacity="0.48" />
      <rect x="91.328003" y="142" width="24" height="4" rx="2" fill="#888888" fill-opacity="0.48" />
      <rect x="96.664001" y="134" width="10.672" height="4" rx="2" fill="#888888" fill-opacity="0.48" />
      <rect x="97.992996" y="126" width="11.848" height="4" rx="2" fill="#888888" fill-opacity="0.48" />
      <rect x="136.504" y="126" width="22.672001" height="4" rx="2" fill="#888888" fill-opacity="0.48" />
      <rect x="98.792" y="118" width="22.375999" height="4" rx="2" fill="#888888" fill-opacity="0.48" />
      <rect x="130.504" y="118" width="29.336" height="4" rx="2" fill="#888888" fill-opacity="0.48" />
      <rect x="98.792" y="110" width="14.784" height="4" rx="2" fill="#888888" fill-opacity="0.48" />
      <rect x="116.24" y="110" width="12.272" height="4" rx="2" fill="#888888" fill-opacity="0.48" />
      <rect x="131.17599" y="110" width="20" height="4" rx="2" fill="#888888" fill-opacity="0.48" />
      <rect x="98.792" y="102" width="7.7119999" height="4" rx="2" fill="#888888" fill-opacity="0.48" />
      <rect x="109.168" y="102" width="22.672001" height="4" rx="2" fill="#888888" fill-opacity="0.48" />
      <rect x="98.792" y="94" width="21.048" height="4" rx="2" fill="#888888" fill-opacity="0.48" />
      <rect x="98.792" y="86" width="15.712" height="4" rx="2" fill="#888888" fill-opacity="0.48" />
      <rect x="98.792" y="78" width="12.384" height="4" rx="2" fill="#888888" fill-opacity="0.48" />
      <rect x="98.792" y="70" width="12.384" height="4" rx="2" fill="#888888" fill-opacity="0.48" />
      <rect x="98.792" y="62" width="4" height="4" rx="2" fill="#888888" fill-opacity="0.48" />
      <rect x="105.456" y="62" width="5.7199998" height="4" rx="2" fill="#888888" fill-opacity="0.48" />
      <rect x="98.792" y="54" width="8" height="4" rx="2" fill="#888888" fill-opacity="0.48" />
      <rect x="109.456" y="54" width="5.0879998" height="4" rx="2" fill="#888888" fill-opacity="0.48" />
      <rect x="98.792" y="46" width="5.0879998" height="4" rx="2" fill="#888888" fill-opacity="0.48" />
      <rect x="106.544" y="46" width="12.672" height="4" rx="2" fill="#888888" fill-opacity="0.48" />
      <rect x="98.792" y="38" width="13.328" height="4" rx="2" fill="#888888" fill-opacity="0.48" />
      <rect x="114.784" y="38" width="15.32" height="4" rx="2" fill="#888888" fill-opacity="0.48" />
      <rect x="171.328" y="150" width="15.832" height="4" rx="2" fill="#888888" fill-opacity="0.48" />
      <rect x="180.664" y="142" width="6.4959998" height="4" rx="2" fill="#888888" fill-opacity="0.48" />
      <rect x="175.15199" y="94" width="12.008" height="4" rx="2" fill="#888888" fill-opacity="0.48" />
      <rect x="163.832" y="86" width="23.327999" height="4" rx="2" fill="#888888" fill-opacity="0.48" />
      <rect x="148.504" y="78" width="38.655998" height="4" rx="2" fill="#888888" fill-opacity="0.48" />
      <rect x="143.168" y="70" width="14.616" height="4" rx="2" fill="#888888" fill-opacity="0.48" />
      <rect x="144.504" y="62" width="8.5200005" height="4" rx="2" fill="#888888" fill-opacity="0.48" />
      <rect x="167.48" y="70" width="19.68" height="4" rx="2" fill="#888888" fill-opacity="0.48" />
      <rect x="177.15199" y="62" width="10.008" height="4" rx="2" fill="#888888" fill-opacity="0.48" />
      <rect x="182.54401" y="54" width="4.6160002" height="4" rx="2" fill="#888888" fill-opacity="0.48" />
      <rect x="176.54401" y="46" width="10.616" height="4" rx="2" fill="#888888" fill-opacity="0.48" />
      <rect x="165.87199" y="38" width="21.288" height="4" rx="2" fill="#888888" fill-opacity="0.48" />
      <rect x="30" y="30" width="157.16" height="4" rx="2" fill="#888888" fill-opacity="0.48" />
   </g>
   <path id="banner-text" d="m 36.89 177 c -0.64 0 -1.19 0.2 -1.62 0.62 -0.43 0.4 -0.65 0.9 -0.65 1.5 0 0.6 0.22 1.12 0.65 1.54 0.43 0.38 0.99 0.59 1.62 0.59 0.67 0 1.2 -0.2 1.62 -0.62 0.43 -0.43 0.65 -0.97 0.65 -1.59 0 -0.59 -0.22 -1.07 -0.65 -1.44 C 38.08 177.2 37.54 177 36.89 177 Z m 118.95 0 c -0.64 0 -1.19 0.2 -1.62 0.62 -0.43 0.4 -0.65 0.9 -0.65 1.5 0 0.6 0.22 1.12 0.65 1.54 0.43 0.38 0.99 0.59 1.62 0.59 0.67 0 1.2 -0.2 1.62 -0.62 0.43 -0.43 0.65 -0.97 0.65 -1.59 0 -0.59 -0.22 -1.07 -0.65 -1.44 C 157.02 177.2 156.49 177 155.83 177 Z m 12.31 0.65 c -1.72 0 -3.04 0.47 -4 1.42 -0.94 0.92 -1.42 2.21 -1.42 3.83 v 0.95 h -2.49 v 2.84 h 2.49 v 12.19 h 3.54 v -12.19 h 4.06 v -2.84 h -4.18 v -0.9 c 0 -1.62 0.75 -2.44 2.24 -2.44 0.7 0 1.35 0.22 1.96 0.64 l 1 -2.68 c -0.79 -0.55 -1.84 -0.82 -3.21 -0.82 z m -99.3 0.2 v 21.03 h 3.38 v -1.96 c 0.59 0.72 1.3 1.25 2.16 1.62 0.87 0.35 1.82 0.54 2.86 0.54 1.47 0 2.79 -0.32 3.95 -0.97 1.17 -0.64 2.09 -1.54 2.74 -2.71 0.67 -1.2 1 -2.56 1 -4.1 0 -1.52 -0.33 -2.88 -1 -4.05 -0.65 -1.17 -1.57 -2.07 -2.74 -2.73 -1.15 -0.64 -2.47 -0.97 -3.95 -0.97 -0.99 0 -1.89 0.18 -2.71 0.52 -0.82 0.33 -1.52 0.84 -2.14 1.5 v -7.74 z m 73.67 2.56 v 3.44 h -2.49 v 2.84 h 2.49 v 7.29 c 0 1.66 0.45 2.93 1.37 3.8 0.9 0.87 2.19 1.3 3.85 1.3 0.67 0 1.29 -0.08 1.87 -0.25 0.6 -0.18 1.12 -0.43 1.54 -0.77 l -1 -2.52 c -0.52 0.42 -1.19 0.62 -1.97 0.62 -0.69 0 -1.2 -0.18 -1.57 -0.55 -0.35 -0.4 -0.54 -0.97 -0.54 -1.71 v -7.21 h 4.06 v -2.84 h -4.06 v -3.44 z m -93.8 3.16 c -2.04 0 -3.66 0.43 -4.87 1.3 -1.2 0.85 -1.79 2.01 -1.79 3.44 0 1.09 0.28 1.96 0.85 2.57 0.59 0.6 1.25 1.04 2.04 1.27 0.79 0.25 1.81 0.47 3.06 0.65 1.19 0.2 2.06 0.38 2.57 0.6 0.55 0.2 0.82 0.57 0.82 1.1 0 1.12 -1.05 1.67 -3.18 1.67 -0.92 0 -1.86 -0.13 -2.83 -0.4 -0.95 -0.28 -1.76 -0.65 -2.44 -1.1 l -1.35 2.69 c 0.69 0.5 1.62 0.9 2.81 1.22 1.17 0.32 2.36 0.49 3.59 0.49 2.11 0 3.78 -0.42 5.02 -1.27 1.22 -0.85 1.84 -1.99 1.84 -3.41 0 -1.07 -0.28 -1.91 -0.85 -2.49 -0.54 -0.59 -1.2 -1 -1.97 -1.25 -0.79 -0.23 -1.77 -0.45 -2.98 -0.65 -1.22 -0.2 -2.11 -0.42 -2.69 -0.65 -0.57 -0.23 -0.85 -0.65 -0.85 -1.22 0 -0.5 0.27 -0.9 0.79 -1.2 0.55 -0.33 1.34 -0.48 2.39 -0.48 1.61 0 3.04 0.37 4.33 1.14 l 1.35 -2.71 c -0.65 -0.38 -1.5 -0.7 -2.54 -0.94 -1.04 -0.23 -2.07 -0.37 -3.13 -0.37 z m 46.16 0 c -1.49 0 -2.84 0.33 -4.03 1 -1.19 0.65 -2.12 1.59 -2.81 2.78 -0.65 1.17 -0.99 2.49 -0.99 3.96 0 1.5 0.33 2.84 1.02 4.03 0.7 1.17 1.69 2.09 2.94 2.76 1.27 0.65 2.74 0.99 4.4 0.99 1.3 0 2.47 -0.2 3.53 -0.62 1.04 -0.42 1.89 -1.04 2.57 -1.86 l -1.91 -2.17 c -1.07 1.1 -2.44 1.64 -4.11 1.64 -1.3 0 -2.39 -0.32 -3.28 -0.95 -0.87 -0.67 -1.42 -1.55 -1.62 -2.68 h 11.89 c 0.03 -0.45 0.05 -0.8 0.05 -1.04 0 -1.55 -0.33 -2.93 -0.99 -4.1 -0.65 -1.19 -1.55 -2.11 -2.73 -2.74 -1.15 -0.67 -2.47 -1 -3.95 -1 z m 16.42 0 c -1.25 0 -2.42 0.17 -3.54 0.49 -1.12 0.32 -2.07 0.79 -2.86 1.39 l 1.39 2.59 c 0.57 -0.49 1.25 -0.85 2.07 -1.1 0.82 -0.27 1.67 -0.4 2.52 -0.4 1.24 0 2.17 0.28 2.79 0.85 0.65 0.57 0.97 1.37 0.97 2.42 v 0.23 h -3.91 c -2.17 0 -3.78 0.42 -4.8 1.25 -1 0.8 -1.49 1.89 -1.49 3.26 0 0.87 0.22 1.66 0.67 2.34 0.47 0.69 1.14 1.22 1.99 1.62 0.85 0.38 1.84 0.57 2.98 0.57 1.14 0 2.09 -0.17 2.89 -0.52 0.82 -0.35 1.44 -0.87 1.87 -1.52 v 1.84 h 3.34 v -8.88 c 0 -2.16 -0.6 -3.76 -1.79 -4.82 -1.17 -1.07 -2.88 -1.62 -5.1 -1.62 z m -76.16 0.18 v 15.5 c 0 0.8 -0.18 1.39 -0.54 1.79 -0.35 0.42 -0.85 0.62 -1.5 0.62 -0.85 0 -1.54 -0.2 -2.07 -0.59 L 30 203.7 c 0.77 0.6 1.91 0.89 3.41 0.89 1.66 0 2.94 -0.49 3.88 -1.45 0.92 -0.95 1.39 -2.27 1.39 -3.96 v -15.42 z m 87.48 0 v 8.64 c 0 2.21 0.57 3.88 1.72 5.02 1.17 1.12 2.78 1.67 4.8 1.67 0.97 0 1.89 -0.18 2.74 -0.54 0.85 -0.38 1.55 -0.92 2.12 -1.59 v 1.92 h 3.38 v -15.13 h -3.54 v 7.66 c 0 1.47 -0.37 2.61 -1.14 3.39 -0.74 0.77 -1.74 1.17 -2.99 1.17 -1.14 0 -2.02 -0.33 -2.64 -1 -0.6 -0.69 -0.9 -1.71 -0.9 -3.06 v -8.16 z m 31.43 0 v 15.13 h 3.54 v -15.13 z m 16.47 0 6.62 15.2 -0.27 0.59 c -0.33 0.75 -0.72 1.3 -1.12 1.62 -0.4 0.32 -0.92 0.49 -1.54 0.49 -0.47 0 -0.95 -0.1 -1.42 -0.28 -0.45 -0.2 -0.85 -0.45 -1.19 -0.77 l -1.42 2.61 c 0.47 0.43 1.09 0.77 1.82 1.02 0.74 0.25 1.49 0.37 2.24 0.37 1.34 0 2.47 -0.33 3.43 -1.02 0.94 -0.67 1.74 -1.82 2.41 -3.46 l 7.09 -16.35 h -3.41 l -4.78 11.19 -4.77 -11.19 z m -75.64 2.66 c 1.15 0 2.12 0.33 2.89 1.02 0.77 0.69 1.24 1.57 1.39 2.66 h -8.59 c 0.17 -1.1 0.65 -1.99 1.42 -2.66 0.8 -0.69 1.76 -1.02 2.89 -1.02 z m -18.02 0.17 c 1.3 0 2.36 0.43 3.19 1.3 0.85 0.87 1.29 2.02 1.29 3.43 0 1.42 -0.43 2.57 -1.29 3.44 -0.84 0.87 -1.89 1.3 -3.19 1.3 -0.85 0 -1.62 -0.2 -2.31 -0.57 -0.69 -0.4 -1.22 -0.95 -1.61 -1.67 -0.4 -0.72 -0.6 -1.55 -0.6 -2.51 0 -0.94 0.2 -1.77 0.6 -2.49 0.38 -0.72 0.92 -1.27 1.61 -1.64 0.69 -0.4 1.45 -0.6 2.31 -0.6 z m -19.68 2.96 v 2.94 h 7.79 v -2.94 z m 53.8 2.86 h 3.66 v 1.76 c -0.28 0.75 -0.77 1.34 -1.47 1.76 -0.69 0.4 -1.47 0.6 -2.36 0.6 -0.9 0 -1.62 -0.2 -2.12 -0.57 -0.52 -0.38 -0.77 -0.89 -0.77 -1.54 0 -1.34 1.02 -2.01 3.06 -2.01 z" fill="#cccccc" />
</svg>